<svg width="196" height="196" viewBox="0 0 196 196" fill="none" xmlns="http://www.w3.org/2000/svg">
<path d="M134.75 113.313C134.75 115.13 134.211 116.906 133.202 118.417C132.192 119.928 130.757 121.105 129.078 121.801C127.4 122.496 125.552 122.678 123.77 122.323C121.988 121.969 120.351 121.094 119.066 119.809C117.781 118.524 116.906 116.887 116.552 115.105C116.197 113.323 116.379 111.475 117.074 109.797C117.77 108.118 118.947 106.683 120.458 105.673C121.969 104.664 123.745 104.125 125.562 104.125C127.999 104.125 130.336 105.093 132.059 106.816C133.782 108.539 134.75 110.876 134.75 113.313ZM70.4375 104.125C68.6204 104.125 66.8441 104.664 65.3332 105.673C63.8223 106.683 62.6447 108.118 61.9493 109.797C61.254 111.475 61.072 113.323 61.4265 115.105C61.781 116.887 62.656 118.524 63.9409 119.809C65.2258 121.094 66.8629 121.969 68.6451 122.323C70.4273 122.678 72.2746 122.496 73.9534 121.801C75.6322 121.105 77.0671 119.928 78.0766 118.417C79.0862 116.906 79.625 115.13 79.625 113.313C79.625 110.876 78.657 108.539 76.934 106.816C75.211 105.093 72.8742 104.125 70.4375 104.125ZM183.75 55.125V116.375C183.734 130.99 177.921 145.002 167.586 155.336C157.252 165.671 143.24 171.484 128.625 171.5H67.375C52.7599 171.484 38.7481 165.671 28.4136 155.336C18.0792 145.002 12.2662 130.99 12.25 116.375V55.125C12.2382 49.1534 14.4078 43.3832 18.3511 38.8987C22.2943 34.4142 27.7396 31.5242 33.6636 30.772C39.5876 30.0197 45.5824 31.4569 50.5213 34.8135C55.4603 38.1702 59.0032 43.215 60.4844 49H135.516C136.997 43.215 140.54 38.1702 145.479 34.8135C150.418 31.4569 156.412 30.0197 162.336 30.772C168.26 31.5242 173.706 34.4142 177.649 38.8987C181.592 43.3832 183.762 49.1534 183.75 55.125ZM153.125 110.25C153.125 103.752 150.544 97.5205 145.949 92.9259C141.354 88.3313 135.123 85.75 128.625 85.75H67.375C60.8772 85.75 54.6455 88.3313 50.0509 92.9259C45.4562 97.5205 42.875 103.752 42.875 110.25V116.375C42.875 122.873 45.4562 129.104 50.0509 133.699C54.6455 138.294 60.8772 140.875 67.375 140.875H128.625C135.123 140.875 141.354 138.294 145.949 133.699C150.544 129.104 153.125 122.873 153.125 116.375V110.25Z" fill="#0D99FF"/>
</svg>
