<svg width="210" height="142" viewBox="0 0 210 142" fill="none" xmlns="http://www.w3.org/2000/svg">
<path d="M34.9062 47.7188L0.84375 50.0625L0.65625 2.53125L7.125 2.1875L6.9375 43.2188L34.5938 41.0625L34.9062 47.7188ZM49.2812 5.34375C49.2812 5.94792 49.1562 6.52083 48.9062 7.0625C48.6771 7.60417 48.3542 8.07292 47.9375 8.46875C47.5417 8.86458 47.0729 9.17708 46.5312 9.40625C45.9896 9.63542 45.4062 9.75 44.7812 9.75C44.1771 9.75 43.6042 9.63542 43.0625 9.40625C42.5417 9.17708 42.0729 8.86458 41.6562 8.46875C41.2604 8.07292 40.9479 7.60417 40.7188 7.0625C40.4896 6.52083 40.375 5.94792 40.375 5.34375C40.375 4.71875 40.4896 4.13542 40.7188 3.59375C40.9479 3.05208 41.2604 2.58333 41.6562 2.1875C42.0729 1.77083 42.5417 1.44792 43.0625 1.21875C43.6042 0.96875 44.1771 0.84375 44.7812 0.84375C45.4062 0.84375 45.9896 0.96875 46.5312 1.21875C47.0729 1.44792 47.5417 1.77083 47.9375 2.1875C48.3542 2.58333 48.6771 3.05208 48.9062 3.59375C49.1562 4.13542 49.2812 4.71875 49.2812 5.34375ZM47.8125 16.3438C47.75 19.3229 47.6875 22.0625 47.625 24.5625C47.5833 27.0417 47.5417 29.3021 47.5 31.3438C47.4583 33.3854 47.4167 35.2188 47.375 36.8438C47.3542 38.4479 47.3333 39.8542 47.3125 41.0625C47.25 43.9375 47.2188 46.1979 47.2188 47.8438H40.8125C40.8542 45.5938 40.9062 42.9167 40.9688 39.8125C41.0104 37.1458 41.0625 33.8854 41.125 30.0312C41.2083 26.1771 41.2812 21.6979 41.3438 16.5938L47.8125 16.3438ZM70.4062 2L70.1875 15.9688L82.3125 15.5625L81.8438 21.4062L70.125 21.7188L69.875 48.9688L63.2812 49.125L63.8125 21.9062L53 22.1562L53.125 16.4062L63.9375 16.0938L64.1875 2.40625L70.4062 2ZM88.0938 49.3125C87.9688 45.7292 87.8542 42.4896 87.75 39.5938C87.6458 36.6771 87.5521 34.0729 87.4688 31.7812C87.3854 29.4896 87.3125 27.4688 87.25 25.7188C87.2083 23.9688 87.1667 22.4583 87.125 21.1875C87.0417 18.2083 86.9792 16 86.9375 14.5625L94.0625 14.4375L94.1875 23.4375C94.875 22.25 95.6562 21.1354 96.5312 20.0938C97.4062 19.0312 98.3542 18.0938 99.375 17.2812C100.396 16.4688 101.479 15.8125 102.625 15.3125C103.792 14.8125 105.01 14.5208 106.281 14.4375C107.865 14.3333 109.24 14.4688 110.406 14.8438C111.594 15.2188 112.604 15.7396 113.438 16.4062C114.271 17.0729 114.958 17.8646 115.5 18.7812C116.042 19.6771 116.469 20.6146 116.781 21.5938C117.094 22.5521 117.312 23.5104 117.438 24.4688C117.583 25.4271 117.677 26.3021 117.719 27.0938C117.844 30.6771 117.875 34.2812 117.812 37.9062C117.75 41.5312 117.677 45.2917 117.594 49.1875L111.188 48.9688C111.354 45.6146 111.5 42.2604 111.625 38.9062C111.771 35.5521 111.76 32.1667 111.594 28.75C111.594 28.375 111.562 27.8958 111.5 27.3125C111.458 26.7083 111.344 26.0729 111.156 25.4062C110.99 24.7396 110.75 24.0833 110.438 23.4375C110.125 22.7708 109.719 22.1979 109.219 21.7188C108.719 21.2188 108.104 20.8438 107.375 20.5938C106.667 20.3438 105.833 20.2917 104.875 20.4375C103.229 20.6875 101.552 21.8958 99.8438 24.0625C98.1562 26.2083 96.3333 29.3542 94.375 33.5C94.4583 36.8542 94.5208 39.5312 94.5625 41.5312C94.625 43.5104 94.6771 45.0104 94.7188 46.0312C94.7604 47.2396 94.7917 48.0521 94.8125 48.4688L88.0938 49.3125ZM150.812 49.25L150.688 40.2812C150 41.5104 149.219 42.6771 148.344 43.7812C147.469 44.8646 146.521 45.8229 145.5 46.6562C144.479 47.4688 143.385 48.1146 142.219 48.5938C141.073 49.0729 139.865 49.2917 138.594 49.25C136.719 49.1875 135.104 48.8333 133.75 48.1875C132.417 47.5417 131.292 46.6875 130.375 45.625C129.458 44.5417 128.719 43.3021 128.156 41.9062C127.615 40.4896 127.198 39 126.906 37.4375C126.615 35.875 126.417 34.2812 126.312 32.6562C126.229 31.0104 126.188 29.4167 126.188 27.875C126.188 25.7083 126.281 23.5208 126.469 21.3125C126.656 19.0833 126.927 16.8125 127.281 14.5L133.688 14.6875C133.354 17.2708 133.125 19.5938 133 21.6562C132.896 23.7188 132.844 25.5312 132.844 27.0938C132.844 27.8021 132.854 28.6979 132.875 29.7812C132.896 30.8646 132.969 32.0208 133.094 33.25C133.24 34.4583 133.458 35.6562 133.75 36.8438C134.042 38.0312 134.448 39.0938 134.969 40.0312C135.51 40.9479 136.188 41.6562 137 42.1562C137.812 42.6562 138.812 42.8229 140 42.6562C141.604 42.4271 143.271 41.3229 145 39.3438C146.75 37.3646 148.583 34.3229 150.5 30.2188C150.438 26.9062 150.375 24.2604 150.312 22.2812C150.271 20.3021 150.24 18.7917 150.219 17.75C150.177 16.5208 150.146 15.6667 150.125 15.1875L156.844 14.4375C156.969 18.0208 157.073 21.2604 157.156 24.1562C157.26 27.0312 157.354 29.625 157.438 31.9375C157.521 34.2292 157.583 36.25 157.625 38C157.688 39.7292 157.74 41.2292 157.781 42.5C157.865 45.4792 157.917 47.6875 157.938 49.125L150.812 49.25ZM173.281 22.8125C173.948 21.9792 174.646 21.125 175.375 20.25C176.125 19.3542 176.927 18.5417 177.781 17.8125C178.656 17.0833 179.594 16.4896 180.594 16.0312C181.615 15.5521 182.74 15.3125 183.969 15.3125C184.844 15.3125 185.688 15.4583 186.5 15.75C187.312 16.0208 188.052 16.4479 188.719 17.0312C189.385 17.6146 189.948 18.3646 190.406 19.2812C190.865 20.1771 191.156 21.25 191.281 22.5C191.927 21.6875 192.604 20.8646 193.312 20.0312C194.042 19.1771 194.823 18.4062 195.656 17.7188C196.51 17.0104 197.427 16.4375 198.406 16C199.385 15.5417 200.469 15.3125 201.656 15.3125C202.573 15.3125 203.469 15.4688 204.344 15.7812C205.219 16.0938 205.99 16.5833 206.656 17.25C207.344 17.8958 207.906 18.7396 208.344 19.7812C208.781 20.8021 209.021 22.0208 209.062 23.4375C209.188 24.9583 209.302 26.875 209.406 29.1875C209.51 31.1667 209.594 33.6875 209.656 36.75C209.74 39.7917 209.781 43.4479 209.781 47.7188L203.25 48.0312C203.25 44.2396 203.24 41 203.219 38.3125C203.198 35.6042 203.177 33.3646 203.156 31.5938C203.115 29.5312 203.083 27.8229 203.062 26.4688C203 24.7604 202.719 23.4896 202.219 22.6562C201.74 21.8229 201.104 21.4062 200.312 21.4062C199.792 21.4062 199.26 21.5625 198.719 21.875C198.198 22.1875 197.667 22.5938 197.125 23.0938C196.604 23.5938 196.083 24.1667 195.562 24.8125C195.062 25.4583 194.583 26.1146 194.125 26.7812C193.667 27.4479 193.229 28.0938 192.812 28.7188C192.396 29.3438 192.031 29.8958 191.719 30.375C191.76 31.2917 191.802 32.3021 191.844 33.4062C191.885 34.5104 191.917 35.7604 191.938 37.1562C191.979 38.5521 192 40.1146 192 41.8438C192.021 43.5729 192.031 45.5312 192.031 47.7188L185.969 48.0312C185.969 44.2396 185.927 41 185.844 38.3125C185.781 35.6042 185.708 33.3646 185.625 31.5938C185.542 29.5312 185.438 27.8229 185.312 26.4688C185.25 24.7604 184.969 23.4896 184.469 22.6562C183.99 21.8229 183.354 21.4062 182.562 21.4062C182.021 21.4062 181.469 21.5833 180.906 21.9375C180.344 22.2917 179.771 22.75 179.188 23.3125C178.625 23.875 178.073 24.5208 177.531 25.25C176.99 25.9583 176.469 26.6771 175.969 27.4062C175.469 28.1354 175 28.8333 174.562 29.5C174.125 30.1667 173.74 30.75 173.406 31.25L173.688 47.7188L167.469 48.0312L166.625 14.4375L173.156 13.7188L173.281 22.8125ZM75.6875 122.156L57.125 123.062L57.375 139L51.375 139.25L50.6562 94.7188L84.5938 94.1875L84.375 100.156L56.8125 100.594L57.0625 116.906L75.5625 116.156L75.6875 122.156ZM112.875 141.25L112.75 132.281C112.062 133.51 111.281 134.677 110.406 135.781C109.531 136.865 108.583 137.823 107.562 138.656C106.542 139.469 105.448 140.115 104.281 140.594C103.135 141.073 101.927 141.292 100.656 141.25C98.7812 141.188 97.1667 140.833 95.8125 140.188C94.4792 139.542 93.3542 138.688 92.4375 137.625C91.5208 136.542 90.7812 135.302 90.2188 133.906C89.6771 132.49 89.2604 131 88.9688 129.438C88.6771 127.875 88.4792 126.281 88.375 124.656C88.2917 123.01 88.25 121.417 88.25 119.875C88.25 117.708 88.3438 115.521 88.5312 113.312C88.7188 111.083 88.9896 108.812 89.3438 106.5L95.75 106.688C95.4167 109.271 95.1875 111.594 95.0625 113.656C94.9583 115.719 94.9062 117.531 94.9062 119.094C94.9062 119.802 94.9167 120.698 94.9375 121.781C94.9583 122.865 95.0312 124.021 95.1562 125.25C95.3021 126.458 95.5208 127.656 95.8125 128.844C96.1042 130.031 96.5104 131.094 97.0312 132.031C97.5729 132.948 98.25 133.656 99.0625 134.156C99.875 134.656 100.875 134.823 102.062 134.656C103.667 134.427 105.333 133.323 107.062 131.344C108.812 129.365 110.646 126.323 112.562 122.219C112.5 118.906 112.438 116.26 112.375 114.281C112.333 112.302 112.302 110.792 112.281 109.75C112.24 108.521 112.208 107.667 112.188 107.188L118.906 106.438C119.031 110.021 119.135 113.26 119.219 116.156C119.323 119.031 119.417 121.625 119.5 123.938C119.583 126.229 119.646 128.25 119.688 130C119.75 131.729 119.802 133.229 119.844 134.5C119.927 137.479 119.979 139.688 120 141.125L112.875 141.25ZM129.719 141.312C129.594 137.729 129.479 134.49 129.375 131.594C129.271 128.677 129.177 126.073 129.094 123.781C129.01 121.49 128.938 119.469 128.875 117.719C128.833 115.969 128.792 114.458 128.75 113.188C128.667 110.208 128.604 108 128.562 106.562L135.688 106.438L135.812 115.438C136.5 114.25 137.281 113.135 138.156 112.094C139.031 111.031 139.979 110.094 141 109.281C142.021 108.469 143.104 107.812 144.25 107.312C145.417 106.812 146.635 106.521 147.906 106.438C149.49 106.333 150.865 106.469 152.031 106.844C153.219 107.219 154.229 107.74 155.062 108.406C155.896 109.073 156.583 109.865 157.125 110.781C157.667 111.677 158.094 112.615 158.406 113.594C158.719 114.552 158.938 115.51 159.062 116.469C159.208 117.427 159.302 118.302 159.344 119.094C159.469 122.677 159.5 126.281 159.438 129.906C159.375 133.531 159.302 137.292 159.219 141.188L152.812 140.969C152.979 137.615 153.125 134.26 153.25 130.906C153.396 127.552 153.385 124.167 153.219 120.75C153.219 120.375 153.188 119.896 153.125 119.312C153.083 118.708 152.969 118.073 152.781 117.406C152.615 116.74 152.375 116.083 152.062 115.438C151.75 114.771 151.344 114.198 150.844 113.719C150.344 113.219 149.729 112.844 149 112.594C148.292 112.344 147.458 112.292 146.5 112.438C144.854 112.688 143.177 113.896 141.469 116.062C139.781 118.208 137.958 121.354 136 125.5C136.083 128.854 136.146 131.531 136.188 133.531C136.25 135.51 136.302 137.01 136.344 138.031C136.385 139.24 136.417 140.052 136.438 140.469L129.719 141.312Z" fill="white"/>
</svg>
