<svg width="390" height="371" viewBox="0 0 390 371" fill="none" xmlns="http://www.w3.org/2000/svg">
<path d="M0.216175 296.711C126.022 473.724 253.564 261.349 390 360.756V-3H0.216175V296.711Z" fill="#604CC3" stroke="black" stroke-opacity="0.2"/>
<path d="M223.505 170.189L137.862 139L108.465 219.811L194.109 251L223.505 170.189ZM101.666 -11.4562L120.444 86.8986L24.0948 51.811L101.666 -11.4562ZM195.382 114.189C206.739 118.325 219.179 118.034 229.966 113.381C240.753 108.728 249.003 100.094 252.902 89.3779C256.8 78.6617 256.027 66.7414 250.753 56.2394C245.479 45.7373 236.135 37.5138 224.778 33.3779C213.421 29.242 200.981 29.5325 190.194 34.1855C179.407 38.8384 171.156 47.4727 167.258 58.189C163.36 68.9052 164.133 80.8255 169.407 91.3275C174.681 101.83 184.025 110.053 195.382 114.189Z" stroke="#FDFDFD" stroke-width="5" stroke-linejoin="round"/>
<path d="M9.39652 92.2165L65.6435 204.217M95.04 123.405L-20 173.028" stroke="#FFA725" stroke-width="5" stroke-linecap="round" stroke-linejoin="round"/>
<path d="M263.484 252.312C263.38 253.042 263.172 253.693 262.859 254.266C262.557 254.828 262.177 255.318 261.719 255.734C261.26 256.151 260.745 256.5 260.172 256.781C259.609 257.073 259.016 257.307 258.391 257.484C257.776 257.661 257.151 257.786 256.516 257.859C255.88 257.943 255.271 257.984 254.688 257.984C253.885 257.984 253.094 257.896 252.312 257.719C251.531 257.552 250.76 257.312 250 257C249.25 256.698 248.505 256.333 247.766 255.906C247.036 255.479 246.312 255.01 245.594 254.5L247.875 251.812C248.688 252.531 249.49 253.099 250.281 253.516C251.083 253.922 251.802 254.229 252.438 254.438C253.177 254.688 253.885 254.854 254.562 254.938C255.312 254.979 256.01 254.922 256.656 254.766C257.302 254.609 257.865 254.385 258.344 254.094C258.833 253.792 259.224 253.438 259.516 253.031C259.807 252.615 259.979 252.177 260.031 251.719C260.062 251.333 259.995 250.984 259.828 250.672C259.661 250.349 259.417 250.057 259.094 249.797C258.771 249.526 258.391 249.292 257.953 249.094C257.516 248.885 257.047 248.703 256.547 248.547C256.057 248.38 255.547 248.24 255.016 248.125C254.495 248 253.99 247.896 253.5 247.812C252.906 247.708 252.281 247.573 251.625 247.406C250.969 247.229 250.323 247 249.688 246.719C249.052 246.438 248.453 246.089 247.891 245.672C247.328 245.255 246.839 244.755 246.422 244.172C246.016 243.578 245.703 242.891 245.484 242.109C245.276 241.328 245.208 240.432 245.281 239.422C245.344 238.589 245.516 237.839 245.797 237.172C246.089 236.495 246.458 235.891 246.906 235.359C247.365 234.828 247.885 234.375 248.469 234C249.062 233.615 249.693 233.297 250.359 233.047C251.026 232.797 251.714 232.62 252.422 232.516C253.141 232.401 253.854 232.349 254.562 232.359C255.542 232.411 256.526 232.562 257.516 232.812C257.932 232.917 258.37 233.052 258.828 233.219C259.297 233.375 259.766 233.568 260.234 233.797C260.703 234.016 261.167 234.281 261.625 234.594C262.083 234.896 262.521 235.245 262.938 235.641L261.188 238.406C260.854 238.031 260.5 237.703 260.125 237.422C259.75 237.141 259.37 236.896 258.984 236.688C258.609 236.479 258.234 236.302 257.859 236.156C257.484 236.01 257.13 235.891 256.797 235.797C255.995 235.578 255.208 235.453 254.438 235.422C253.49 235.422 252.646 235.568 251.906 235.859C251.167 236.141 250.542 236.51 250.031 236.969C249.531 237.417 249.146 237.922 248.875 238.484C248.615 239.036 248.484 239.583 248.484 240.125C248.484 240.656 248.641 241.172 248.953 241.672C249.276 242.172 249.719 242.625 250.281 243.031C250.844 243.438 251.505 243.786 252.266 244.078C253.026 244.359 253.844 244.557 254.719 244.672C255.479 244.755 256.234 244.891 256.984 245.078C257.745 245.266 258.469 245.505 259.156 245.797C259.844 246.089 260.474 246.443 261.047 246.859C261.63 247.266 262.12 247.74 262.516 248.281C262.911 248.812 263.198 249.417 263.375 250.094C263.562 250.76 263.599 251.5 263.484 252.312ZM271.156 235.172C271.156 235.474 271.094 235.76 270.969 236.031C270.854 236.302 270.693 236.536 270.484 236.734C270.286 236.932 270.052 237.089 269.781 237.203C269.51 237.318 269.219 237.375 268.906 237.375C268.604 237.375 268.318 237.318 268.047 237.203C267.786 237.089 267.552 236.932 267.344 236.734C267.146 236.536 266.99 236.302 266.875 236.031C266.76 235.76 266.703 235.474 266.703 235.172C266.703 234.859 266.76 234.568 266.875 234.297C266.99 234.026 267.146 233.792 267.344 233.594C267.552 233.385 267.786 233.224 268.047 233.109C268.318 232.984 268.604 232.922 268.906 232.922C269.219 232.922 269.51 232.984 269.781 233.109C270.052 233.224 270.286 233.385 270.484 233.594C270.693 233.792 270.854 234.026 270.969 234.297C271.094 234.568 271.156 234.859 271.156 235.172ZM270.422 240.672C270.391 242.161 270.359 243.531 270.328 244.781C270.307 246.021 270.286 247.151 270.266 248.172C270.245 249.193 270.224 250.109 270.203 250.922C270.193 251.724 270.182 252.427 270.172 253.031C270.141 254.469 270.125 255.599 270.125 256.422H266.922C266.943 255.297 266.969 253.958 267 252.406C267.021 251.073 267.047 249.443 267.078 247.516C267.12 245.589 267.156 243.349 267.188 240.797L270.422 240.672ZM291.469 238.688L291.375 256.641C291.365 257.318 291.276 257.99 291.109 258.656C290.943 259.333 290.693 259.984 290.359 260.609C290.036 261.245 289.63 261.839 289.141 262.391C288.661 262.953 288.104 263.448 287.469 263.875C286.844 264.312 286.141 264.667 285.359 264.938C284.578 265.219 283.724 265.396 282.797 265.469C281.536 265.51 280.349 265.38 279.234 265.078C278.755 264.953 278.266 264.781 277.766 264.562C277.276 264.344 276.802 264.062 276.344 263.719C275.885 263.385 275.464 262.979 275.078 262.5C274.693 262.031 274.375 261.474 274.125 260.828L277.141 259.516C277.339 259.964 277.578 260.349 277.859 260.672C278.141 260.995 278.443 261.266 278.766 261.484C279.089 261.703 279.417 261.88 279.75 262.016C280.094 262.151 280.427 262.25 280.75 262.312C281.51 262.479 282.312 262.51 283.156 262.406C283.885 262.26 284.516 262.036 285.047 261.734C285.589 261.432 286.047 261.094 286.422 260.719C286.797 260.354 287.099 259.964 287.328 259.547C287.568 259.141 287.755 258.75 287.891 258.375C288.026 258 288.115 257.656 288.156 257.344C288.208 257.042 288.234 256.807 288.234 256.641V254.594C287.609 255.188 286.958 255.646 286.281 255.969C285.615 256.281 284.995 256.51 284.422 256.656C283.755 256.833 283.099 256.932 282.453 256.953C281.245 256.953 280.12 256.74 279.078 256.312C278.036 255.896 277.13 255.297 276.359 254.516C275.589 253.724 274.979 252.766 274.531 251.641C274.094 250.516 273.875 249.25 273.875 247.844C273.875 246.427 274.12 245.167 274.609 244.062C275.099 242.948 275.74 242.01 276.531 241.25C277.333 240.49 278.234 239.911 279.234 239.516C280.245 239.109 281.26 238.906 282.281 238.906C282.99 238.99 283.703 239.146 284.422 239.375C285.036 239.573 285.698 239.854 286.406 240.219C287.115 240.583 287.771 241.078 288.375 241.703L288.406 238.594L291.469 238.688ZM282.453 253.953C283.141 253.953 283.807 253.833 284.453 253.594C285.099 253.354 285.682 253.021 286.203 252.594C286.734 252.156 287.182 251.641 287.547 251.047C287.911 250.443 288.161 249.781 288.297 249.062V247.016C288.182 246.276 287.938 245.604 287.562 245C287.188 244.385 286.729 243.859 286.188 243.422C285.646 242.984 285.042 242.646 284.375 242.406C283.719 242.167 283.047 242.047 282.359 242.047C281.609 242.047 280.917 242.203 280.281 242.516C279.646 242.818 279.099 243.24 278.641 243.781C278.193 244.323 277.839 244.964 277.578 245.703C277.328 246.443 277.203 247.24 277.203 248.094C277.203 248.948 277.333 249.734 277.594 250.453C277.854 251.172 278.214 251.792 278.672 252.312C279.141 252.823 279.693 253.224 280.328 253.516C280.974 253.807 281.682 253.953 282.453 253.953ZM296.5 257.156C296.438 255.365 296.38 253.745 296.328 252.297C296.276 250.839 296.229 249.536 296.188 248.391C296.146 247.245 296.109 246.234 296.078 245.359C296.057 244.484 296.036 243.729 296.016 243.094C295.974 241.604 295.943 240.5 295.922 239.781L299.484 239.719L299.547 244.219C299.891 243.625 300.281 243.068 300.719 242.547C301.156 242.016 301.63 241.547 302.141 241.141C302.651 240.734 303.193 240.406 303.766 240.156C304.349 239.906 304.958 239.76 305.594 239.719C306.385 239.667 307.073 239.734 307.656 239.922C308.25 240.109 308.755 240.37 309.172 240.703C309.589 241.036 309.932 241.432 310.203 241.891C310.474 242.339 310.688 242.807 310.844 243.297C311 243.776 311.109 244.255 311.172 244.734C311.245 245.214 311.292 245.651 311.312 246.047C311.375 247.839 311.391 249.641 311.359 251.453C311.328 253.266 311.292 255.146 311.25 257.094L308.047 256.984C308.13 255.307 308.203 253.63 308.266 251.953C308.339 250.276 308.333 248.583 308.25 246.875C308.25 246.688 308.234 246.448 308.203 246.156C308.182 245.854 308.125 245.536 308.031 245.203C307.948 244.87 307.828 244.542 307.672 244.219C307.516 243.885 307.312 243.599 307.062 243.359C306.812 243.109 306.505 242.922 306.141 242.797C305.786 242.672 305.37 242.646 304.891 242.719C304.068 242.844 303.229 243.448 302.375 244.531C301.531 245.604 300.62 247.177 299.641 249.25C299.682 250.927 299.714 252.266 299.734 253.266C299.766 254.255 299.792 255.005 299.812 255.516C299.833 256.12 299.849 256.526 299.859 256.734L296.5 257.156ZM328.469 235.172C328.469 235.474 328.406 235.76 328.281 236.031C328.167 236.302 328.005 236.536 327.797 236.734C327.599 236.932 327.365 237.089 327.094 237.203C326.823 237.318 326.531 237.375 326.219 237.375C325.917 237.375 325.63 237.318 325.359 237.203C325.099 237.089 324.865 236.932 324.656 236.734C324.458 236.536 324.302 236.302 324.188 236.031C324.073 235.76 324.016 235.474 324.016 235.172C324.016 234.859 324.073 234.568 324.188 234.297C324.302 234.026 324.458 233.792 324.656 233.594C324.865 233.385 325.099 233.224 325.359 233.109C325.63 232.984 325.917 232.922 326.219 232.922C326.531 232.922 326.823 232.984 327.094 233.109C327.365 233.224 327.599 233.385 327.797 233.594C328.005 233.792 328.167 234.026 328.281 234.297C328.406 234.568 328.469 234.859 328.469 235.172ZM327.734 240.672C327.703 242.161 327.672 243.531 327.641 244.781C327.62 246.021 327.599 247.151 327.578 248.172C327.557 249.193 327.536 250.109 327.516 250.922C327.505 251.724 327.495 252.427 327.484 253.031C327.453 254.469 327.438 255.599 327.438 256.422H324.234C324.255 255.297 324.281 253.958 324.312 252.406C324.333 251.073 324.359 249.443 324.391 247.516C324.432 245.589 324.469 243.349 324.5 240.797L327.734 240.672ZM332.688 257.156C332.625 255.365 332.568 253.745 332.516 252.297C332.464 250.839 332.417 249.536 332.375 248.391C332.333 247.245 332.297 246.234 332.266 245.359C332.245 244.484 332.224 243.729 332.203 243.094C332.161 241.604 332.13 240.5 332.109 239.781L335.672 239.719L335.734 244.219C336.078 243.625 336.469 243.068 336.906 242.547C337.344 242.016 337.818 241.547 338.328 241.141C338.839 240.734 339.38 240.406 339.953 240.156C340.536 239.906 341.146 239.76 341.781 239.719C342.573 239.667 343.26 239.734 343.844 239.922C344.438 240.109 344.943 240.37 345.359 240.703C345.776 241.036 346.12 241.432 346.391 241.891C346.661 242.339 346.875 242.807 347.031 243.297C347.188 243.776 347.297 244.255 347.359 244.734C347.432 245.214 347.479 245.651 347.5 246.047C347.562 247.839 347.578 249.641 347.547 251.453C347.516 253.266 347.479 255.146 347.438 257.094L344.234 256.984C344.318 255.307 344.391 253.63 344.453 251.953C344.526 250.276 344.521 248.583 344.438 246.875C344.438 246.688 344.422 246.448 344.391 246.156C344.37 245.854 344.312 245.536 344.219 245.203C344.135 244.87 344.016 244.542 343.859 244.219C343.703 243.885 343.5 243.599 343.25 243.359C343 243.109 342.693 242.922 342.328 242.797C341.974 242.672 341.557 242.646 341.078 242.719C340.255 242.844 339.417 243.448 338.562 244.531C337.719 245.604 336.807 247.177 335.828 249.25C335.87 250.927 335.901 252.266 335.922 253.266C335.953 254.255 335.979 255.005 336 255.516C336.021 256.12 336.036 256.526 336.047 256.734L332.688 257.156ZM253.062 279.5L252.953 286.484L259.016 286.281L258.781 289.203L252.922 289.359L252.797 302.984L249.5 303.062L249.766 289.453L244.359 289.578L244.422 286.703L249.828 286.547L249.953 279.703L253.062 279.5ZM277.047 294.422C277.047 295.734 276.828 296.948 276.391 298.062C275.953 299.177 275.354 300.146 274.594 300.969C273.833 301.792 272.943 302.432 271.922 302.891C270.901 303.359 269.812 303.594 268.656 303.594C267.5 303.594 266.417 303.375 265.406 302.938C264.396 302.5 263.51 301.88 262.75 301.078C262 300.266 261.406 299.297 260.969 298.172C260.531 297.047 260.312 295.797 260.312 294.422C260.312 293.036 260.531 291.781 260.969 290.656C261.406 289.521 262 288.552 262.75 287.75C263.51 286.948 264.396 286.328 265.406 285.891C266.417 285.453 267.5 285.234 268.656 285.234C269.812 285.234 270.901 285.469 271.922 285.938C272.943 286.396 273.833 287.036 274.594 287.859C275.354 288.672 275.953 289.641 276.391 290.766C276.828 291.88 277.047 293.099 277.047 294.422ZM273.75 294.391C273.75 293.641 273.656 292.885 273.469 292.125C273.281 291.354 272.984 290.667 272.578 290.062C272.172 289.448 271.646 288.948 271 288.562C270.354 288.177 269.573 287.984 268.656 287.984C267.771 287.984 267.01 288.177 266.375 288.562C265.74 288.948 265.219 289.448 264.812 290.062C264.406 290.667 264.109 291.354 263.922 292.125C263.734 292.885 263.641 293.641 263.641 294.391C263.641 295.141 263.74 295.896 263.938 296.656C264.146 297.417 264.458 298.104 264.875 298.719C265.292 299.323 265.812 299.818 266.438 300.203C267.073 300.589 267.812 300.781 268.656 300.781C269.542 300.781 270.302 300.589 270.938 300.203C271.583 299.818 272.115 299.323 272.531 298.719C272.948 298.104 273.255 297.417 273.453 296.656C273.651 295.896 273.75 295.141 273.75 294.391ZM359.047 301.109C359.047 301.38 358.995 301.635 358.891 301.875C358.786 302.115 358.641 302.323 358.453 302.5C358.276 302.688 358.068 302.833 357.828 302.938C357.589 303.042 357.333 303.094 357.062 303.094C356.781 303.094 356.516 303.042 356.266 302.938C356.026 302.833 355.812 302.688 355.625 302.5C355.448 302.323 355.307 302.115 355.203 301.875C355.099 301.635 355.047 301.38 355.047 301.109C355.047 300.828 355.099 300.568 355.203 300.328C355.307 300.078 355.448 299.865 355.625 299.688C355.812 299.5 356.026 299.354 356.266 299.25C356.516 299.146 356.781 299.094 357.062 299.094C357.333 299.094 357.589 299.146 357.828 299.25C358.068 299.354 358.276 299.5 358.453 299.688C358.641 299.865 358.786 300.078 358.891 300.328C358.995 300.568 359.047 300.828 359.047 301.109Z" fill="white"/>
<path d="M292.391 285.609L292.359 287.891C292.953 287.307 293.573 286.859 294.219 286.547C294.865 286.224 295.458 285.979 296 285.812C296.635 285.625 297.255 285.505 297.859 285.453C298.568 285.453 299.271 285.557 299.969 285.766C300.667 285.964 301.328 286.25 301.953 286.625C302.578 286.99 303.156 287.432 303.688 287.953C304.219 288.474 304.672 289.057 305.047 289.703C305.422 290.339 305.708 291.026 305.906 291.766C306.115 292.505 306.203 293.281 306.172 294.094C306.141 294.99 306.005 295.833 305.766 296.625C305.526 297.417 305.208 298.146 304.812 298.812C304.427 299.469 303.974 300.062 303.453 300.594C302.932 301.125 302.375 301.573 301.781 301.938C301.198 302.302 300.589 302.578 299.953 302.766C299.328 302.964 298.703 303.062 298.078 303.062C297.443 303.042 296.797 302.948 296.141 302.781C295.568 302.635 294.938 302.406 294.25 302.094C293.562 301.792 292.885 301.354 292.219 300.781L292.125 311.375L289.219 311.438L288.953 285.75L292.391 285.609ZM302.656 294.391C302.698 293.63 302.599 292.901 302.359 292.203C302.13 291.495 301.781 290.875 301.312 290.344C300.854 289.812 300.302 289.391 299.656 289.078C299.01 288.766 298.302 288.615 297.531 288.625C296.885 288.635 296.276 288.755 295.703 288.984C295.141 289.203 294.63 289.5 294.172 289.875C293.724 290.24 293.339 290.667 293.016 291.156C292.703 291.646 292.469 292.156 292.312 292.688L292.281 295.656C292.438 296.344 292.682 296.948 293.016 297.469C293.349 297.99 293.74 298.427 294.188 298.781C294.646 299.125 295.141 299.391 295.672 299.578C296.203 299.755 296.74 299.849 297.281 299.859C298.01 299.88 298.693 299.75 299.328 299.469C299.974 299.188 300.536 298.797 301.016 298.297C301.495 297.797 301.875 297.214 302.156 296.547C302.448 295.88 302.615 295.161 302.656 294.391ZM315.828 302.766C315.089 302.755 314.432 302.63 313.859 302.391C313.297 302.151 312.797 301.844 312.359 301.469C311.932 301.083 311.562 300.646 311.25 300.156C310.948 299.667 310.693 299.172 310.484 298.672C309.984 297.484 309.672 296.141 309.547 294.641L309.969 274.828H313.234C313.182 276.682 313.13 278.385 313.078 279.938C313.036 281.479 313 282.885 312.969 284.156C312.938 285.417 312.906 286.547 312.875 287.547C312.854 288.547 312.833 289.427 312.812 290.188C312.771 291.979 312.74 293.391 312.719 294.422C312.74 295.391 312.88 296.255 313.141 297.016C313.245 297.339 313.38 297.656 313.547 297.969C313.724 298.281 313.932 298.562 314.172 298.812C314.422 299.062 314.714 299.266 315.047 299.422C315.391 299.568 315.786 299.646 316.234 299.656L315.828 302.766ZM330.812 302.984L331.031 300.781C329.76 301.594 328.51 302.182 327.281 302.547C326.062 302.911 324.922 303.094 323.859 303.094C323.109 303.094 322.38 302.995 321.672 302.797C320.974 302.609 320.354 302.318 319.812 301.922C319.281 301.516 318.849 301.005 318.516 300.391C318.193 299.766 318.031 299.031 318.031 298.188C318.031 297.344 318.156 296.589 318.406 295.922C318.656 295.255 319 294.667 319.438 294.156C319.875 293.646 320.391 293.208 320.984 292.844C321.578 292.479 322.214 292.182 322.891 291.953C323.578 291.724 324.297 291.557 325.047 291.453C325.797 291.339 326.542 291.281 327.281 291.281C327.969 291.281 328.609 291.307 329.203 291.359C329.797 291.411 330.323 291.479 330.781 291.562C330.646 291.042 330.479 290.531 330.281 290.031C330.083 289.521 329.828 289.068 329.516 288.672C329.214 288.266 328.839 287.938 328.391 287.688C327.943 287.438 327.406 287.312 326.781 287.312C326.375 287.312 325.911 287.375 325.391 287.5C324.87 287.615 324.297 287.828 323.672 288.141C323.047 288.453 322.365 288.885 321.625 289.438C320.885 289.979 320.094 290.677 319.25 291.531L317.359 289.234C318.359 288.297 319.318 287.531 320.234 286.938C321.151 286.344 322.01 285.88 322.812 285.547C323.625 285.203 324.375 284.969 325.062 284.844C325.76 284.719 326.385 284.656 326.938 284.656C327.896 284.656 328.75 284.823 329.5 285.156C330.25 285.479 330.906 285.927 331.469 286.5C332.042 287.062 332.521 287.729 332.906 288.5C333.302 289.26 333.625 290.083 333.875 290.969C334.125 291.844 334.302 292.755 334.406 293.703C334.521 294.651 334.578 295.594 334.578 296.531C334.578 297.531 334.521 298.604 334.406 299.75C334.292 300.896 334.115 302.146 333.875 303.5L330.812 302.984ZM331.25 297.297C331.271 296.776 331.286 296.26 331.297 295.75C331.307 295.24 331.281 294.708 331.219 294.156C330.708 294 330.172 293.875 329.609 293.781C329.047 293.688 328.484 293.641 327.922 293.641C326.984 293.641 326.073 293.75 325.188 293.969C324.312 294.188 323.557 294.505 322.922 294.922C322.286 295.339 321.807 295.849 321.484 296.453C321.172 297.057 321.109 297.745 321.297 298.516C321.443 299.141 321.724 299.578 322.141 299.828C322.568 300.078 323.078 300.203 323.672 300.203C324.276 300.203 324.927 300.104 325.625 299.906C326.333 299.698 327.031 299.448 327.719 299.156C328.417 298.854 329.073 298.536 329.688 298.203C330.302 297.87 330.823 297.568 331.25 297.297ZM352.859 286.188C352.307 287.812 351.802 289.297 351.344 290.641C350.896 291.984 350.49 293.198 350.125 294.281C349.76 295.365 349.432 296.328 349.141 297.172C348.849 298.016 348.594 298.755 348.375 299.391C347.865 300.88 347.464 302.026 347.172 302.828C346.964 303.443 346.719 304.094 346.438 304.781C346.167 305.479 345.828 306.172 345.422 306.859C345.026 307.547 344.557 308.208 344.016 308.844C343.484 309.49 342.859 310.062 342.141 310.562C341.432 311.073 340.62 311.49 339.703 311.812C338.786 312.135 337.755 312.323 336.609 312.375L336 309.328C336.646 309.411 337.25 309.391 337.812 309.266C338.385 309.151 338.911 308.964 339.391 308.703C339.88 308.453 340.328 308.146 340.734 307.781C341.151 307.417 341.526 307.031 341.859 306.625C342.203 306.219 342.505 305.802 342.766 305.375C343.026 304.958 343.255 304.568 343.453 304.203L336.859 286.703L340.438 286.219L345.047 299.984C345.297 299.214 345.589 298.307 345.922 297.266C346.266 296.214 346.625 295.083 347 293.875C347.385 292.667 347.781 291.406 348.188 290.094C348.594 288.771 348.99 287.458 349.375 286.156L352.859 286.188Z" fill="#FFA725"/>
</svg>
