<svg width="390" height="371" viewBox="0 0 390 371" fill="none" xmlns="http://www.w3.org/2000/svg">
<g clip-path="url(#clip0_2002_7)">
<path d="M0.216064 296.711C126.022 473.724 253.564 261.349 390 360.756V-3H0.216064V296.711Z" fill="#604CC3" stroke="black" stroke-opacity="0.2"/>
<path d="M231.41 149.645L145.767 118.456L116.37 199.267L202.014 230.456L231.41 149.645ZM109.571 -32L128.349 66.3548L32 31.2672L109.571 -32ZM203.287 93.6452C214.644 97.7812 227.084 97.4902 237.871 92.8372C248.658 88.1842 256.908 79.5502 260.807 68.8341C264.705 58.1179 263.932 46.1976 258.658 35.6956C253.384 25.1935 244.04 16.97 232.683 12.8341C221.326 8.6982 208.886 8.9887 198.099 13.6417C187.312 18.2946 179.061 26.9289 175.163 37.6452C171.265 48.3614 172.038 60.2817 177.312 70.7837C182.586 81.2862 191.93 89.5092 203.287 93.6452Z" stroke="#FDFDFD" stroke-width="5" stroke-linejoin="round"/>
<path d="M21.3965 72L77.6435 184M107.04 103.188L-8 152.812" stroke="#FFA725" stroke-width="5" stroke-linecap="round" stroke-linejoin="round"/>
<path d="M243.811 202.016C243.692 200.899 243.189 200.03 242.303 199.408C241.425 198.786 240.283 198.474 238.876 198.474C237.888 198.474 237.04 198.624 236.332 198.922C235.625 199.22 235.084 199.625 234.709 200.136C234.334 200.648 234.142 201.232 234.134 201.888C234.134 202.433 234.257 202.906 234.504 203.307C234.76 203.707 235.105 204.048 235.54 204.33C235.974 204.602 236.456 204.832 236.984 205.02C237.513 205.207 238.045 205.365 238.582 205.493L241.037 206.107C242.026 206.337 242.976 206.648 243.888 207.04C244.808 207.432 245.631 207.926 246.355 208.523C247.088 209.119 247.668 209.839 248.094 210.683C248.52 211.527 248.733 212.516 248.733 213.649C248.733 215.183 248.341 216.534 247.557 217.702C246.773 218.861 245.639 219.768 244.156 220.425C242.682 221.072 240.896 221.396 238.8 221.396C236.763 221.396 234.994 221.081 233.494 220.45C232.003 219.82 230.835 218.899 229.991 217.689C229.156 216.479 228.705 215.004 228.636 213.266H233.303C233.371 214.178 233.652 214.936 234.146 215.541C234.641 216.146 235.284 216.598 236.077 216.896C236.878 217.195 237.773 217.344 238.761 217.344C239.793 217.344 240.696 217.19 241.472 216.884C242.256 216.568 242.869 216.134 243.312 215.58C243.756 215.017 243.982 214.361 243.99 213.611C243.982 212.929 243.781 212.366 243.389 211.923C242.997 211.472 242.447 211.097 241.74 210.798C241.041 210.491 240.223 210.219 239.286 209.98L236.307 209.213C234.151 208.659 232.446 207.82 231.193 206.695C229.949 205.561 229.327 204.057 229.327 202.182C229.327 200.639 229.744 199.288 230.58 198.129C231.423 196.97 232.57 196.071 234.018 195.432C235.467 194.784 237.108 194.46 238.94 194.46C240.798 194.46 242.426 194.784 243.824 195.432C245.23 196.071 246.334 196.962 247.135 198.104C247.936 199.237 248.349 200.541 248.375 202.016H243.811ZM261.833 221H252.961V194.818H262.012C264.612 194.818 266.845 195.342 268.711 196.391C270.586 197.43 272.027 198.926 273.032 200.878C274.038 202.83 274.541 205.165 274.541 207.884C274.541 210.611 274.034 212.955 273.02 214.915C272.014 216.875 270.561 218.379 268.66 219.428C266.768 220.476 264.493 221 261.833 221ZM257.704 216.896H261.603C263.427 216.896 264.949 216.564 266.167 215.899C267.386 215.226 268.302 214.224 268.916 212.895C269.529 211.557 269.836 209.886 269.836 207.884C269.836 205.881 269.529 204.219 268.916 202.898C268.302 201.568 267.395 200.575 266.193 199.919C265 199.254 263.517 198.922 261.744 198.922H257.704V216.896ZM300.563 194.818V221H296.344L284.007 203.166H283.79V221H279.047V194.818H283.292L295.615 212.665H295.846V194.818H300.563ZM324.082 221.499C321.977 221.499 320.17 220.966 318.662 219.901C317.162 218.827 316.007 217.28 315.197 215.26C314.396 213.232 313.996 210.79 313.996 207.935C314.004 205.08 314.409 202.651 315.21 200.648C316.02 198.636 317.175 197.102 318.675 196.045C320.183 194.989 321.986 194.46 324.082 194.46C326.179 194.46 327.982 194.989 329.49 196.045C330.999 197.102 332.153 198.636 332.955 200.648C333.764 202.659 334.169 205.088 334.169 207.935C334.169 210.798 333.764 213.244 332.955 215.273C332.153 217.293 330.999 218.835 329.49 219.901C327.99 220.966 326.188 221.499 324.082 221.499ZM324.082 217.497C325.719 217.497 327.01 216.692 327.956 215.081C328.911 213.462 329.388 211.08 329.388 207.935C329.388 205.855 329.17 204.108 328.736 202.693C328.301 201.278 327.688 200.213 326.895 199.497C326.102 198.773 325.165 198.411 324.082 198.411C322.455 198.411 321.168 199.22 320.222 200.839C319.276 202.45 318.798 204.815 318.79 207.935C318.781 210.023 318.99 211.778 319.416 213.202C319.851 214.625 320.464 215.699 321.257 216.423C322.05 217.139 322.991 217.497 324.082 217.497ZM349.066 194.818V221H344.323V199.433H344.169L338.046 203.345V198.999L344.553 194.818H349.066ZM365.11 221.358C363.269 221.358 361.632 221.043 360.201 220.412C358.777 219.781 357.652 218.903 356.826 217.778C355.999 216.653 355.56 215.354 355.509 213.879H360.316C360.358 214.587 360.593 215.205 361.019 215.733C361.445 216.253 362.012 216.658 362.719 216.947C363.426 217.237 364.219 217.382 365.097 217.382C366.034 217.382 366.865 217.22 367.59 216.896C368.314 216.564 368.881 216.104 369.29 215.516C369.699 214.928 369.9 214.25 369.891 213.483C369.9 212.69 369.695 211.991 369.277 211.386C368.86 210.781 368.255 210.308 367.462 209.967C366.678 209.626 365.732 209.456 364.624 209.456H362.31V205.8H364.624C365.536 205.8 366.333 205.642 367.015 205.327C367.705 205.011 368.246 204.568 368.638 203.997C369.03 203.418 369.222 202.749 369.213 201.99C369.222 201.249 369.056 200.605 368.715 200.06C368.382 199.506 367.909 199.075 367.296 198.768C366.691 198.462 365.979 198.308 365.161 198.308C364.36 198.308 363.618 198.453 362.936 198.743C362.255 199.033 361.705 199.446 361.287 199.983C360.87 200.511 360.648 201.142 360.623 201.875H356.059C356.093 200.409 356.515 199.122 357.324 198.014C358.142 196.898 359.233 196.028 360.597 195.406C361.961 194.776 363.49 194.46 365.186 194.46C366.934 194.46 368.451 194.788 369.738 195.445C371.033 196.092 372.034 196.966 372.742 198.065C373.449 199.165 373.803 200.379 373.803 201.709C373.811 203.183 373.377 204.419 372.499 205.416C371.63 206.413 370.488 207.065 369.073 207.372V207.577C370.914 207.832 372.324 208.514 373.304 209.622C374.293 210.722 374.783 212.089 374.775 213.726C374.775 215.192 374.357 216.504 373.522 217.663C372.695 218.814 371.553 219.717 370.096 220.374C368.647 221.03 366.985 221.358 365.11 221.358Z" fill="white"/>
<path d="M152.582 265V238.818H162.401C164.412 238.818 166.099 239.193 167.463 239.943C168.835 240.693 169.871 241.724 170.57 243.037C171.277 244.341 171.631 245.824 171.631 247.486C171.631 249.165 171.277 250.656 170.57 251.96C169.862 253.264 168.818 254.291 167.438 255.041C166.057 255.783 164.357 256.153 162.337 256.153H155.83V252.254H161.697C162.874 252.254 163.837 252.05 164.587 251.641C165.337 251.232 165.891 250.669 166.249 249.953C166.615 249.237 166.798 248.415 166.798 247.486C166.798 246.557 166.615 245.739 166.249 245.031C165.891 244.324 165.332 243.774 164.574 243.382C163.824 242.982 162.857 242.781 161.672 242.781H157.325V265H152.582ZM176.195 265H171.132L180.349 238.818H186.205L195.435 265H190.372L183.379 244.188H183.175L176.195 265ZM176.361 254.734H190.168V258.544H176.361V254.734ZM212.69 246.016C212.571 244.899 212.068 244.03 211.181 243.408C210.304 242.786 209.162 242.474 207.755 242.474C206.767 242.474 205.919 242.624 205.211 242.922C204.504 243.22 203.963 243.625 203.588 244.136C203.213 244.648 203.021 245.232 203.012 245.888C203.012 246.433 203.136 246.906 203.383 247.307C203.639 247.707 203.984 248.048 204.419 248.33C204.853 248.602 205.335 248.832 205.863 249.02C206.392 249.207 206.924 249.365 207.461 249.493L209.916 250.107C210.904 250.337 211.855 250.648 212.767 251.04C213.687 251.432 214.51 251.926 215.234 252.523C215.967 253.119 216.547 253.839 216.973 254.683C217.399 255.527 217.612 256.516 217.612 257.649C217.612 259.183 217.22 260.534 216.436 261.702C215.652 262.861 214.518 263.768 213.035 264.425C211.561 265.072 209.775 265.396 207.679 265.396C205.642 265.396 203.873 265.081 202.373 264.45C200.882 263.82 199.714 262.899 198.87 261.689C198.035 260.479 197.583 259.004 197.515 257.266H202.181C202.25 258.178 202.531 258.936 203.025 259.541C203.52 260.146 204.163 260.598 204.956 260.896C205.757 261.195 206.652 261.344 207.64 261.344C208.672 261.344 209.575 261.19 210.35 260.884C211.135 260.568 211.748 260.134 212.191 259.58C212.635 259.017 212.86 258.361 212.869 257.611C212.86 256.929 212.66 256.366 212.268 255.923C211.876 255.472 211.326 255.097 210.619 254.798C209.92 254.491 209.102 254.219 208.164 253.98L205.186 253.213C203.029 252.659 201.325 251.82 200.072 250.695C198.828 249.561 198.206 248.057 198.206 246.182C198.206 244.639 198.623 243.288 199.458 242.129C200.302 240.97 201.449 240.071 202.897 239.432C204.346 238.784 205.987 238.46 207.819 238.46C209.677 238.46 211.305 238.784 212.703 239.432C214.109 240.071 215.213 240.962 216.014 242.104C216.815 243.237 217.228 244.541 217.254 246.016H212.69ZM226.583 238.818V265H221.84V238.818H226.583ZM231.719 265V238.818H241.537C243.549 238.818 245.236 239.168 246.6 239.866C247.972 240.565 249.007 241.545 249.706 242.807C250.414 244.06 250.767 245.521 250.767 247.192C250.767 248.871 250.409 250.328 249.694 251.564C248.986 252.791 247.942 253.741 246.561 254.415C245.181 255.08 243.485 255.412 241.473 255.412H234.48V251.474H240.834C242.01 251.474 242.973 251.312 243.723 250.989C244.473 250.656 245.027 250.175 245.385 249.544C245.752 248.905 245.935 248.121 245.935 247.192C245.935 246.263 245.752 245.47 245.385 244.814C245.019 244.149 244.461 243.646 243.711 243.305C242.961 242.956 241.993 242.781 240.809 242.781H236.462V265H231.719ZM245.245 253.136L251.726 265H246.434L240.067 253.136H245.245ZM264.063 265V238.818H268.806V250.848H269.125L279.34 238.818H285.131L275.006 250.567L285.221 265H279.519L271.708 253.776L268.806 257.202V265H264.063ZM291.788 265H286.726L295.943 238.818H301.798L311.028 265H305.966L298.973 244.188H298.768L291.788 265ZM291.955 254.734H305.761V258.544H291.955V254.734ZM314.477 265V238.818H319.22V261.024H330.751V265H314.477ZM339.61 238.818V265H334.868V238.818H339.61ZM344.746 265V238.818H349.489V250.848H349.809L360.023 238.818H365.815L355.69 250.567L365.904 265H360.202L352.391 253.776L349.489 257.202V265H344.746ZM373.853 238.818V265H369.11V238.818H373.853Z" fill="#FFA725"/>
<path d="M256.722 297V279.545H263.403C264.665 279.545 265.713 279.744 266.548 280.142C267.389 280.534 268.017 281.071 268.432 281.753C268.852 282.435 269.062 283.207 269.062 284.071C269.062 284.781 268.926 285.389 268.653 285.895C268.381 286.395 268.014 286.801 267.554 287.114C267.094 287.426 266.58 287.651 266.011 287.787V287.957C266.631 287.991 267.224 288.182 267.793 288.528C268.366 288.869 268.835 289.352 269.199 289.977C269.563 290.602 269.744 291.358 269.744 292.244C269.744 293.148 269.526 293.96 269.088 294.682C268.651 295.398 267.991 295.963 267.111 296.378C266.23 296.793 265.122 297 263.787 297H256.722ZM259.884 294.358H263.284C264.432 294.358 265.259 294.139 265.764 293.702C266.276 293.259 266.531 292.69 266.531 291.997C266.531 291.48 266.403 291.014 266.148 290.599C265.892 290.179 265.528 289.849 265.057 289.611C264.585 289.366 264.023 289.244 263.369 289.244H259.884V294.358ZM259.884 286.969H263.011C263.557 286.969 264.048 286.869 264.486 286.67C264.923 286.466 265.267 286.179 265.517 285.81C265.773 285.435 265.901 284.991 265.901 284.48C265.901 283.804 265.662 283.247 265.185 282.81C264.713 282.372 264.011 282.153 263.08 282.153H259.884V286.969ZM274.737 297H271.362L277.506 279.545H281.41L287.563 297H284.188L279.526 283.125H279.39L274.737 297ZM274.847 290.156H284.052V292.696H274.847V290.156ZM304.206 279.545V297H301.393L293.169 285.111H293.024V297H289.862V279.545H292.692L300.908 291.443H301.061V279.545H304.206ZM313.566 297H307.651V279.545H313.685C315.418 279.545 316.907 279.895 318.151 280.594C319.401 281.287 320.362 282.284 321.032 283.585C321.702 284.886 322.038 286.443 322.038 288.256C322.038 290.074 321.7 291.636 321.023 292.943C320.353 294.25 319.384 295.253 318.117 295.952C316.856 296.651 315.339 297 313.566 297ZM310.813 294.264H313.413C314.629 294.264 315.643 294.043 316.455 293.599C317.268 293.151 317.879 292.483 318.288 291.597C318.697 290.705 318.901 289.591 318.901 288.256C318.901 286.92 318.697 285.812 318.288 284.932C317.879 284.045 317.273 283.384 316.472 282.946C315.677 282.503 314.688 282.281 313.506 282.281H310.813V294.264ZM336.045 279.545H339.207V290.949C339.207 292.199 338.911 293.298 338.32 294.247C337.735 295.196 336.911 295.937 335.849 296.472C334.786 297 333.545 297.264 332.124 297.264C330.698 297.264 329.454 297 328.391 296.472C327.329 295.937 326.505 295.196 325.92 294.247C325.335 293.298 325.042 292.199 325.042 290.949V279.545H328.204V290.685C328.204 291.412 328.363 292.06 328.681 292.628C329.005 293.196 329.46 293.642 330.045 293.966C330.63 294.284 331.323 294.443 332.124 294.443C332.925 294.443 333.619 294.284 334.204 293.966C334.795 293.642 335.249 293.196 335.567 292.628C335.886 292.06 336.045 291.412 336.045 290.685V279.545ZM356.987 279.545V297H354.175L345.95 285.111H345.805V297H342.643V279.545H345.473L353.689 291.443H353.842V279.545H356.987ZM372.126 285.119C371.984 284.659 371.788 284.247 371.538 283.884C371.293 283.514 370.998 283.199 370.651 282.938C370.31 282.676 369.918 282.48 369.475 282.349C369.032 282.213 368.549 282.145 368.026 282.145C367.089 282.145 366.254 282.381 365.521 282.852C364.788 283.324 364.211 284.017 363.79 284.932C363.376 285.841 363.168 286.949 363.168 288.256C363.168 289.574 363.376 290.69 363.79 291.605C364.205 292.52 364.782 293.216 365.521 293.693C366.259 294.165 367.117 294.401 368.094 294.401C368.981 294.401 369.748 294.23 370.396 293.889C371.049 293.548 371.552 293.065 371.904 292.44C372.256 291.81 372.433 291.071 372.433 290.224L373.148 290.335H368.41V287.864H375.492V289.96C375.492 291.455 375.174 292.747 374.538 293.838C373.901 294.929 373.026 295.77 371.913 296.361C370.799 296.946 369.521 297.239 368.077 297.239C366.469 297.239 365.058 296.878 363.842 296.156C362.631 295.429 361.685 294.398 361.004 293.062C360.327 291.722 359.989 290.131 359.989 288.29C359.989 286.881 360.188 285.622 360.586 284.514C360.989 283.406 361.552 282.466 362.273 281.693C362.995 280.915 363.842 280.324 364.813 279.92C365.785 279.511 366.842 279.307 367.984 279.307C368.95 279.307 369.85 279.449 370.685 279.733C371.521 280.011 372.262 280.409 372.91 280.926C373.563 281.443 374.1 282.057 374.521 282.767C374.941 283.477 375.217 284.261 375.347 285.119H372.126Z" fill="white"/>
</g>
<defs>
<clipPath id="clip0_2002_7">
<rect width="390" height="371" fill="white"/>
</clipPath>
</defs>
</svg>
