<svg width="390" height="844" viewBox="0 0 390 844" fill="none" xmlns="http://www.w3.org/2000/svg">
<rect width="390" height="844" fill="url(#paint0_linear_20_10)"/>
<path d="M297.103 423.516L262.734 411L250.554 444.484L284.923 457L297.103 423.516ZM248.783 349.04L255.936 389.565L217.27 375.484L248.783 349.04ZM286.009 400.516C290.566 402.176 295.579 402.004 299.944 400.038C304.308 398.072 307.668 394.473 309.283 390.032C310.898 385.592 310.637 380.675 308.556 376.361C306.476 372.048 302.747 368.692 298.189 367.032C293.631 365.373 288.619 365.545 284.254 367.511C279.889 369.477 276.529 373.076 274.914 377.516C273.299 381.956 273.56 386.874 275.641 391.188C277.722 395.501 281.451 398.856 286.009 400.516Z" stroke="#FDFDFD" stroke-width="5" stroke-linejoin="round"/>
<path d="M211.18 392.226L233.369 438.226M245.549 404.742L199 425.709" stroke="#FFA725" stroke-width="5" stroke-linecap="round" stroke-linejoin="round"/>
<path d="M145.726 404.128C146.207 404.961 146.43 405.918 146.367 406.877C146.304 407.836 145.958 408.756 145.372 409.519C144.787 410.281 143.989 410.853 143.078 411.162C142.168 411.472 141.186 411.504 140.258 411.255C139.329 411.006 138.495 410.487 137.861 409.764C137.227 409.042 136.821 408.147 136.696 407.194C136.57 406.24 136.73 405.271 137.156 404.409C137.581 403.547 138.252 402.83 139.085 402.349C140.202 401.704 141.529 401.53 142.774 401.863C144.019 402.197 145.081 403.012 145.726 404.128ZM113.825 416.933C112.992 417.414 112.321 418.131 111.895 418.993C111.47 419.855 111.31 420.824 111.436 421.778C111.561 422.731 111.966 423.626 112.6 424.348C113.234 425.071 114.068 425.59 114.997 425.839C115.926 426.088 116.908 426.056 117.818 425.747C118.728 425.437 119.527 424.865 120.112 424.103C120.697 423.34 121.043 422.421 121.106 421.461C121.169 420.502 120.946 419.545 120.465 418.712C119.821 417.596 118.759 416.781 117.514 416.447C116.268 416.114 114.941 416.288 113.825 416.933ZM152.785 364.501L168.99 392.568C172.849 399.27 173.892 407.228 171.891 414.698C169.889 422.168 165.006 428.539 158.313 432.413L130.246 448.617C123.545 452.476 115.586 453.52 108.116 451.518C100.647 449.516 94.276 444.634 90.402 437.941L74.1975 409.874C72.6122 407.14 72.0798 403.922 72.7003 400.824C73.3208 397.726 75.0515 394.961 77.5671 393.049C80.0826 391.137 83.2099 390.21 86.3612 390.441C89.5124 390.673 92.4706 392.047 94.6798 394.306L129.062 374.456C128.21 371.413 128.499 368.164 129.874 365.319C131.249 362.474 133.616 360.23 136.53 359.007C139.443 357.784 142.703 357.668 145.696 358.68C148.69 359.692 151.211 361.762 152.785 364.501ZM153.336 397.864C151.617 394.886 148.785 392.714 145.464 391.824C142.143 390.934 138.605 391.4 135.627 393.119L107.56 409.323C104.582 411.042 102.41 413.874 101.52 417.195C100.63 420.516 101.096 424.054 102.815 427.032L104.435 429.839C106.155 432.816 108.986 434.989 112.307 435.879C115.628 436.768 119.167 436.303 122.144 434.584L150.211 418.379C153.189 416.66 155.361 413.828 156.251 410.507C157.141 407.186 156.675 403.648 154.956 400.67L153.336 397.864Z" fill="#0D99FF"/>
<path d="M160.703 482.359L143.672 483.531L143.578 459.766L146.812 459.594L146.719 480.109L160.547 479.031L160.703 482.359ZM167.891 461.172C167.891 461.474 167.828 461.76 167.703 462.031C167.589 462.302 167.427 462.536 167.219 462.734C167.021 462.932 166.786 463.089 166.516 463.203C166.245 463.318 165.953 463.375 165.641 463.375C165.339 463.375 165.052 463.318 164.781 463.203C164.521 463.089 164.286 462.932 164.078 462.734C163.88 462.536 163.724 462.302 163.609 462.031C163.495 461.76 163.438 461.474 163.438 461.172C163.438 460.859 163.495 460.568 163.609 460.297C163.724 460.026 163.88 459.792 164.078 459.594C164.286 459.385 164.521 459.224 164.781 459.109C165.052 458.984 165.339 458.922 165.641 458.922C165.953 458.922 166.245 458.984 166.516 459.109C166.786 459.224 167.021 459.385 167.219 459.594C167.427 459.792 167.589 460.026 167.703 460.297C167.828 460.568 167.891 460.859 167.891 461.172ZM167.156 466.672C167.125 468.161 167.094 469.531 167.062 470.781C167.042 472.021 167.021 473.151 167 474.172C166.979 475.193 166.958 476.109 166.938 476.922C166.927 477.724 166.917 478.427 166.906 479.031C166.875 480.469 166.859 481.599 166.859 482.422H163.656C163.677 481.297 163.703 479.958 163.734 478.406C163.755 477.073 163.781 475.443 163.812 473.516C163.854 471.589 163.891 469.349 163.922 466.797L167.156 466.672ZM178.453 459.5L178.344 466.484L184.406 466.281L184.172 469.203L178.312 469.359L178.188 482.984L174.891 483.062L175.156 469.453L169.75 469.578L169.812 466.703L175.219 466.547L175.344 459.703L178.453 459.5ZM187.297 483.156C187.234 481.365 187.177 479.745 187.125 478.297C187.073 476.839 187.026 475.536 186.984 474.391C186.943 473.245 186.906 472.234 186.875 471.359C186.854 470.484 186.833 469.729 186.812 469.094C186.771 467.604 186.74 466.5 186.719 465.781L190.281 465.719L190.344 470.219C190.688 469.625 191.078 469.068 191.516 468.547C191.953 468.016 192.427 467.547 192.938 467.141C193.448 466.734 193.99 466.406 194.562 466.156C195.146 465.906 195.755 465.76 196.391 465.719C197.182 465.667 197.87 465.734 198.453 465.922C199.047 466.109 199.552 466.37 199.969 466.703C200.385 467.036 200.729 467.432 201 467.891C201.271 468.339 201.484 468.807 201.641 469.297C201.797 469.776 201.906 470.255 201.969 470.734C202.042 471.214 202.089 471.651 202.109 472.047C202.172 473.839 202.188 475.641 202.156 477.453C202.125 479.266 202.089 481.146 202.047 483.094L198.844 482.984C198.927 481.307 199 479.63 199.062 477.953C199.135 476.276 199.13 474.583 199.047 472.875C199.047 472.688 199.031 472.448 199 472.156C198.979 471.854 198.922 471.536 198.828 471.203C198.745 470.87 198.625 470.542 198.469 470.219C198.312 469.885 198.109 469.599 197.859 469.359C197.609 469.109 197.302 468.922 196.938 468.797C196.583 468.672 196.167 468.646 195.688 468.719C194.865 468.844 194.026 469.448 193.172 470.531C192.328 471.604 191.417 473.177 190.438 475.25C190.479 476.927 190.51 478.266 190.531 479.266C190.562 480.255 190.589 481.005 190.609 481.516C190.63 482.12 190.646 482.526 190.656 482.734L187.297 483.156ZM218.656 483.125L218.594 478.641C218.25 479.255 217.859 479.839 217.422 480.391C216.984 480.932 216.51 481.411 216 481.828C215.49 482.234 214.943 482.557 214.359 482.797C213.786 483.036 213.182 483.146 212.547 483.125C211.609 483.094 210.802 482.917 210.125 482.594C209.458 482.271 208.896 481.844 208.438 481.312C207.979 480.771 207.609 480.151 207.328 479.453C207.057 478.745 206.849 478 206.703 477.219C206.557 476.438 206.458 475.641 206.406 474.828C206.365 474.005 206.344 473.208 206.344 472.438C206.344 471.354 206.391 470.26 206.484 469.156C206.578 468.042 206.714 466.906 206.891 465.75L210.094 465.844C209.927 467.135 209.812 468.297 209.75 469.328C209.698 470.359 209.672 471.266 209.672 472.047C209.672 472.401 209.677 472.849 209.688 473.391C209.698 473.932 209.734 474.51 209.797 475.125C209.87 475.729 209.979 476.328 210.125 476.922C210.271 477.516 210.474 478.047 210.734 478.516C211.005 478.974 211.344 479.328 211.75 479.578C212.156 479.828 212.656 479.911 213.25 479.828C214.052 479.714 214.885 479.161 215.75 478.172C216.625 477.182 217.542 475.661 218.5 473.609C218.469 471.953 218.438 470.63 218.406 469.641C218.385 468.651 218.37 467.896 218.359 467.375C218.339 466.76 218.323 466.333 218.312 466.094L221.672 465.719C221.734 467.51 221.786 469.13 221.828 470.578C221.88 472.016 221.927 473.312 221.969 474.469C222.01 475.615 222.042 476.625 222.062 477.5C222.094 478.365 222.12 479.115 222.141 479.75C222.182 481.24 222.208 482.344 222.219 483.062L218.656 483.125ZM229.891 469.906C230.224 469.49 230.573 469.062 230.938 468.625C231.312 468.177 231.714 467.771 232.141 467.406C232.578 467.042 233.047 466.745 233.547 466.516C234.057 466.276 234.62 466.156 235.234 466.156C235.672 466.156 236.094 466.229 236.5 466.375C236.906 466.51 237.276 466.724 237.609 467.016C237.943 467.307 238.224 467.682 238.453 468.141C238.682 468.589 238.828 469.125 238.891 469.75C239.214 469.344 239.552 468.932 239.906 468.516C240.271 468.089 240.661 467.703 241.078 467.359C241.505 467.005 241.964 466.719 242.453 466.5C242.943 466.271 243.484 466.156 244.078 466.156C244.536 466.156 244.984 466.234 245.422 466.391C245.859 466.547 246.245 466.792 246.578 467.125C246.922 467.448 247.203 467.87 247.422 468.391C247.641 468.901 247.76 469.51 247.781 470.219C247.844 470.979 247.901 471.938 247.953 473.094C248.005 474.083 248.047 475.344 248.078 476.875C248.12 478.396 248.141 480.224 248.141 482.359L244.875 482.516C244.875 480.62 244.87 479 244.859 477.656C244.849 476.302 244.839 475.182 244.828 474.297C244.807 473.266 244.792 472.411 244.781 471.734C244.75 470.88 244.609 470.245 244.359 469.828C244.12 469.411 243.802 469.203 243.406 469.203C243.146 469.203 242.88 469.281 242.609 469.438C242.349 469.594 242.083 469.797 241.812 470.047C241.552 470.297 241.292 470.583 241.031 470.906C240.781 471.229 240.542 471.557 240.312 471.891C240.083 472.224 239.865 472.547 239.656 472.859C239.448 473.172 239.266 473.448 239.109 473.688C239.13 474.146 239.151 474.651 239.172 475.203C239.193 475.755 239.208 476.38 239.219 477.078C239.24 477.776 239.25 478.557 239.25 479.422C239.26 480.286 239.266 481.266 239.266 482.359L236.234 482.516C236.234 480.62 236.214 479 236.172 477.656C236.141 476.302 236.104 475.182 236.062 474.297C236.021 473.266 235.969 472.411 235.906 471.734C235.875 470.88 235.734 470.245 235.484 469.828C235.245 469.411 234.927 469.203 234.531 469.203C234.26 469.203 233.984 469.292 233.703 469.469C233.422 469.646 233.135 469.875 232.844 470.156C232.562 470.438 232.286 470.76 232.016 471.125C231.745 471.479 231.484 471.839 231.234 472.203C230.984 472.568 230.75 472.917 230.531 473.25C230.312 473.583 230.12 473.875 229.953 474.125L230.094 482.359L226.984 482.516L226.562 465.719L229.828 465.359L229.891 469.906ZM181.094 519.578L171.812 520.031L171.938 528L168.938 528.125L168.578 505.859L185.547 505.594L185.438 508.578L171.656 508.797L171.781 516.953L181.031 516.578L181.094 519.578ZM199.688 529.125L199.625 524.641C199.281 525.255 198.891 525.839 198.453 526.391C198.016 526.932 197.542 527.411 197.031 527.828C196.521 528.234 195.974 528.557 195.391 528.797C194.818 529.036 194.214 529.146 193.578 529.125C192.641 529.094 191.833 528.917 191.156 528.594C190.49 528.271 189.927 527.844 189.469 527.312C189.01 526.771 188.641 526.151 188.359 525.453C188.089 524.745 187.88 524 187.734 523.219C187.589 522.438 187.49 521.641 187.438 520.828C187.396 520.005 187.375 519.208 187.375 518.438C187.375 517.354 187.422 516.26 187.516 515.156C187.609 514.042 187.745 512.906 187.922 511.75L191.125 511.844C190.958 513.135 190.844 514.297 190.781 515.328C190.729 516.359 190.703 517.266 190.703 518.047C190.703 518.401 190.708 518.849 190.719 519.391C190.729 519.932 190.766 520.51 190.828 521.125C190.901 521.729 191.01 522.328 191.156 522.922C191.302 523.516 191.505 524.047 191.766 524.516C192.036 524.974 192.375 525.328 192.781 525.578C193.188 525.828 193.688 525.911 194.281 525.828C195.083 525.714 195.917 525.161 196.781 524.172C197.656 523.182 198.573 521.661 199.531 519.609C199.5 517.953 199.469 516.63 199.438 515.641C199.417 514.651 199.401 513.896 199.391 513.375C199.37 512.76 199.354 512.333 199.344 512.094L202.703 511.719C202.766 513.51 202.818 515.13 202.859 516.578C202.911 518.016 202.958 519.312 203 520.469C203.042 521.615 203.073 522.625 203.094 523.5C203.125 524.365 203.151 525.115 203.172 525.75C203.214 527.24 203.24 528.344 203.25 529.062L199.688 529.125ZM208.109 529.156C208.047 527.365 207.99 525.745 207.938 524.297C207.885 522.839 207.839 521.536 207.797 520.391C207.755 519.245 207.719 518.234 207.688 517.359C207.667 516.484 207.646 515.729 207.625 515.094C207.583 513.604 207.552 512.5 207.531 511.781L211.094 511.719L211.156 516.219C211.5 515.625 211.891 515.068 212.328 514.547C212.766 514.016 213.24 513.547 213.75 513.141C214.26 512.734 214.802 512.406 215.375 512.156C215.958 511.906 216.568 511.76 217.203 511.719C217.995 511.667 218.682 511.734 219.266 511.922C219.859 512.109 220.365 512.37 220.781 512.703C221.198 513.036 221.542 513.432 221.812 513.891C222.083 514.339 222.297 514.807 222.453 515.297C222.609 515.776 222.719 516.255 222.781 516.734C222.854 517.214 222.901 517.651 222.922 518.047C222.984 519.839 223 521.641 222.969 523.453C222.938 525.266 222.901 527.146 222.859 529.094L219.656 528.984C219.74 527.307 219.812 525.63 219.875 523.953C219.948 522.276 219.943 520.583 219.859 518.875C219.859 518.688 219.844 518.448 219.812 518.156C219.792 517.854 219.734 517.536 219.641 517.203C219.557 516.87 219.438 516.542 219.281 516.219C219.125 515.885 218.922 515.599 218.672 515.359C218.422 515.109 218.115 514.922 217.75 514.797C217.396 514.672 216.979 514.646 216.5 514.719C215.677 514.844 214.839 515.448 213.984 516.531C213.141 517.604 212.229 519.177 211.25 521.25C211.292 522.927 211.323 524.266 211.344 525.266C211.375 526.255 211.401 527.005 211.422 527.516C211.443 528.12 211.458 528.526 211.469 528.734L208.109 529.156Z" fill="#FFF7F7"/>
<defs>
<linearGradient id="paint0_linear_20_10" x1="195" y1="37" x2="195" y2="844" gradientUnits="userSpaceOnUse">
<stop stop-color="#6C5DB6"/>
<stop offset="0.986488" stop-color="#916E39"/>
</linearGradient>
</defs>
</svg>
